        <svg width="299" height="299" viewBox="0 0 299 299" fill="none" xmlns="http://www.w3.org/2000/svg">
          <path
            d="M265.43 13.41C255.74 7.79 244.14 7.76 234.45 13.3L151.27 60.56C149.83 61.38 148.05 61.37 146.62 60.56L64.16 13.38C54.41 7.8 42.81 7.85 33.1 13.5C23.4 19.15 17.63 29.22 17.66 40.46L18.25 195.45C18.29 206.43 23.86 216.48 33.15 222.33L133.04 285.26C138.07 288.43 143.83 290.01 149.6 290.01C155.37 290.01 161.13 288.43 166.16 285.26L178.92 277.22C188.36 285.03 200.47 289.73 213.65 289.73C243.74 289.73 268.22 265.25 268.22 235.16C268.22 230.62 267.65 226.2 266.6 221.98C275.56 216.24 280.91 206.48 280.91 195.83V40.29C280.91 29.08 275.12 19.04 265.43 13.42V13.41ZM213.65 264.33C197.55 264.33 184.46 251.24 184.46 235.14C184.46 219.04 197.55 205.95 213.65 205.95C229.75 205.95 242.84 219.04 242.84 235.14C242.84 251.24 229.75 264.33 213.65 264.33ZM213.65 180.57C188.81 180.57 167.81 197.25 161.23 220C160.58 219.97 159.93 219.97 159.26 220.04C152.29 220.78 147.24 227.02 147.97 233.99C150.03 253.47 148.15 261.47 147.18 264.09C146.97 263.99 146.76 263.89 146.56 263.76L46.67 200.83C44.77 199.63 43.63 197.58 43.62 195.33L43.03 40.35C43.03 37.5 44.8 36.04 45.85 35.42C46.91 34.8 49.06 33.98 51.53 35.4L130.47 80.57C128.44 88.28 127.24 99.98 128.14 118.38C128.62 128.31 126.89 140.08 125.09 143.28C120.2 147.75 119.56 155.31 123.76 160.56C126.27 163.69 129.96 165.32 133.68 165.32C136.46 165.32 139.26 164.41 141.6 162.54C154.53 152.2 153.78 122.91 153.5 117.14C152.52 97.09 154.36 88.77 155.35 85.82C158.28 85.19 161.13 84.13 163.79 82.61L247 35.33C249.47 33.92 251.62 34.73 252.67 35.35C253.73 35.96 255.5 37.42 255.5 40.27V195.79C255.5 196.97 255.14 198.08 254.49 199.02C244.48 187.71 229.87 180.55 213.62 180.55L213.65 180.57Z"
            stroke="white"
            stroke-width="6"
          />
        </svg>